<svg width="104" height="29" viewBox="0 0 104 29" fill="none" xmlns="http://www.w3.org/2000/svg">
<rect width="104" height="29" rx="3" fill="#E8E8E8"/>
<path d="M11 21.5C9.34 21.5 7.9252 20.8173 6.7556 19.4518C5.5852 18.0873 5 16.4367 5 14.5C5 12.5633 5.5852 10.9123 6.7556 9.5468C7.9252 8.18227 9.34 7.5 11 7.5H14.6C14.94 7.5 15.2252 7.63393 15.4556 7.9018C15.6852 8.1706 15.8 8.50333 15.8 8.9C15.8 9.29667 15.6852 9.62893 15.4556 9.8968C15.2252 10.1656 14.94 10.3 14.6 10.3H11C10 10.3 9.15 10.7083 8.45 11.525C7.75 12.3417 7.4 13.3333 7.4 14.5C7.4 15.6667 7.75 16.6583 8.45 17.475C9.15 18.2917 10 18.7 11 18.7H14.6C14.94 18.7 15.2252 18.8339 15.4556 19.1018C15.6852 19.3706 15.8 19.7033 15.8 20.1C15.8 20.4967 15.6852 20.8289 15.4556 21.0968C15.2252 21.3656 14.94 21.5 14.6 21.5H11ZM13.4 15.9C13.06 15.9 12.7752 15.7656 12.5456 15.4968C12.3152 15.2289 12.2 14.8967 12.2 14.5C12.2 14.1033 12.3152 13.7706 12.5456 13.5018C12.7752 13.2339 13.06 13.1 13.4 13.1H20.6C20.94 13.1 21.2252 13.2339 21.4556 13.5018C21.6852 13.7706 21.8 14.1033 21.8 14.5C21.8 14.8967 21.6852 15.2289 21.4556 15.4968C21.2252 15.7656 20.94 15.9 20.6 15.9H13.4ZM19.4 21.5C19.06 21.5 18.7752 21.3656 18.5456 21.0968C18.3152 20.8289 18.2 20.4967 18.2 20.1C18.2 19.7033 18.3152 19.3706 18.5456 19.1018C18.7752 18.8339 19.06 18.7 19.4 18.7H23C24 18.7 24.85 18.2917 25.55 17.475C26.25 16.6583 26.6 15.6667 26.6 14.5C26.6 13.3333 26.25 12.3417 25.55 11.525C24.85 10.7083 24 10.3 23 10.3H19.4C19.06 10.3 18.7752 10.1656 18.5456 9.8968C18.3152 9.62893 18.2 9.29667 18.2 8.9C18.2 8.50333 18.3152 8.1706 18.5456 7.9018C18.7752 7.63393 19.06 7.5 19.4 7.5H23C24.66 7.5 26.0752 8.18227 27.2456 9.5468C28.4152 10.9123 29 12.5633 29 14.5C29 16.4367 28.4152 18.0873 27.2456 19.4518C26.0752 20.8173 24.66 21.5 23 21.5H19.4Z" fill="black"/>
<path d="M48.7234 8.48367H49.896V16.231H48.7234V8.48367ZM40.1944 14.514H41.2134C43.5027 14.514 45.1917 14.4442 47.2158 14.1092L47.3415 15.0584C45.2615 15.4074 43.5585 15.4633 41.2134 15.4633H40.1944V14.514ZM40.1664 9.26539H45.8897V12.7552H41.325V15.0445H40.1944V11.8478H44.759V10.2146H40.1664V9.26539ZM45.7361 16.5102C48.3605 16.5102 49.9797 17.3338 49.9797 18.7856C49.9797 20.2373 48.3605 21.0749 45.7361 21.0749C43.0979 21.0749 41.5065 20.2373 41.5065 18.7856C41.5065 17.3338 43.0979 16.5102 45.7361 16.5102ZM45.7361 17.4315C43.8098 17.4315 42.6512 17.9201 42.6512 18.7856C42.6512 19.651 43.8098 20.1536 45.7361 20.1536C47.6625 20.1536 48.8211 19.651 48.8211 18.7856C48.8211 17.9201 47.6625 17.4315 45.7361 17.4315ZM53.7476 9.75396H61.7602V10.7032H53.7476V9.75396ZM52.3936 18.3668H63.7982V19.3439H52.3936V18.3668ZM61.2577 9.75396H62.3884V11.3034C62.3884 13.16 62.3884 14.877 61.8579 17.4594L60.7133 17.3478C61.2577 14.9189 61.2577 13.1181 61.2577 11.3034V9.75396ZM61.5508 13.2438V14.1092L53.5801 14.542L53.4126 13.5788L61.5508 13.2438ZM69.147 14.9747H80.5517V15.9239H69.147V14.9747ZM74.284 13.0902H75.4286V15.2678H74.284V13.0902ZM70.4173 17.1523H79.1418V21.0888H77.9832V18.1016H70.4173V17.1523ZM70.6686 8.76286H71.8132V10.1867H77.9134V8.76286H79.072V13.4811H70.6686V8.76286ZM71.8132 11.094V12.5598H77.9134V11.094H71.8132ZM85.0873 9.55853H86.0365V11.8199C86.0365 14.6118 84.5289 17.3338 82.5328 18.3947L81.8209 17.4734C83.6495 16.5521 85.0873 14.1232 85.0873 11.8199V9.55853ZM85.2967 9.55853H86.232V11.8199C86.232 14.0394 87.6418 16.3427 89.4286 17.2361L88.7167 18.1574C86.7624 17.1104 85.2967 14.528 85.2967 11.8199V9.55853ZM90.5314 8.46971H91.704V21.0888H90.5314V8.46971ZM91.4248 13.5788H93.7699V14.5559H91.4248V13.5788Z" fill="black"/>
</svg>
